<svg version="1.1" xmlns="http://www.w3.org/2000/svg" viewBox="0 0 372 185" width="372" height="185">
  <rect x="0" y="0" width="372" height="185" fill="#ffffff"></rect><g stroke-linecap="round" transform="translate(72 10) rotate(0 91 80)"><path d="M92 0 C118.04 23.44, 144.08 46.87, 182 81 M92 0 C124.3 29.07, 156.6 58.14, 182 81 M182 81 C157.84 102.21, 133.67 123.42, 92 160 M182 81 C155.61 104.17, 129.21 127.34, 92 160 M92 160 C56.13 129.2, 20.26 98.4, 0 81 M92 160 C63.2 135.27, 34.4 110.54, 0 81 M0 81 C20.22 63.2, 40.44 45.39, 92 0 M0 81 C21.93 61.69, 43.87 42.38, 92 0" stroke="#1e1e1e" stroke-width="2" fill="none"></path></g><g stroke-linecap="round" transform="translate(10 23) rotate(0 74.5 70)"><path d="M75 0 C97.57 21.66, 120.14 43.31, 149 71 M75 0 C94.34 18.56, 113.68 37.11, 149 71 M149 71 C122.8 95.43, 96.6 119.86, 75 140 M149 71 C119.82 98.21, 90.65 125.41, 75 140 M75 140 C51.35 118.25, 27.71 96.49, 0 71 M75 140 C59.37 125.62, 43.75 111.25, 0 71 M0 71 C27.71 44.77, 55.42 18.53, 75 0 M0 71 C24.99 47.35, 49.97 23.69, 75 0" stroke="#1e1e1e" stroke-width="2" fill="none"></path></g><g stroke-linecap="round" transform="translate(180 15) rotate(0 91 80)"><path d="M92 0 C123.96 28.76, 155.92 57.53, 182 81 M92 0 C121.29 26.36, 150.58 52.72, 182 81 M182 81 C156.59 103.31, 131.17 125.62, 92 160 M182 81 C152.84 106.6, 123.68 132.19, 92 160 M92 160 C72.9 143.6, 53.81 127.21, 0 81 M92 160 C55.56 128.71, 19.12 97.42, 0 81 M0 81 C28.08 56.28, 56.16 31.55, 92 0 M0 81 C25.53 58.52, 51.06 36.04, 92 0" stroke="#1e1e1e" stroke-width="2" fill="none"></path></g>
</svg>
