<svg version="1.1" xmlns="http://www.w3.org/2000/svg" viewBox="0 0 186 182" width="186" height="182">
<rect x="0" y="0" width="186" height="182" fill="#ffffff"></rect><g stroke-linecap="round" transform="translate(26 57) rotate(0 57 49.5)"><path d="M0 0 C23.5 0, 47.01 0, 114 0 M0 0 C40.13 0, 80.25 0, 114 0 M114 0 C114 38.88, 114 77.76, 114 99 M114 0 C114 26.32, 114 52.64, 114 99 M114 99 C87.86 99, 61.72 99, 0 99 M114 99 C81.07 99, 48.13 99, 0 99 M0 99 C0 69.23, 0 39.47, 0 0 M0 99 C0 61.37, 0 23.74, 0 0" stroke="#1e1e1e" stroke-width="2" fill="none"></path></g><g stroke-linecap="round" transform="translate(48 34) rotate(0 55.5 54.5)"><path d="M0 0 C30.65 0, 61.3 0, 111 0 M0 0 C31.89 0, 63.77 0, 111 0 M111 0 C111 41.34, 111 82.67, 111 109 M111 0 C111 27.95, 111 55.91, 111 109 M111 109 C66.85 109, 22.69 109, 0 109 M111 109 C71.69 109, 32.37 109, 0 109 M0 109 C0 77.31, 0 45.62, 0 0 M0 109 C0 67.83, 0 26.66, 0 0" stroke="#1e1e1e" stroke-width="2" fill="none"></path></g><g stroke-linecap="round" transform="translate(61 73) rotate(0 57.5 49.5)"><path d="M0 0 C40.99 0, 81.98 0, 115 0 M0 0 C33.9 0, 67.79 0, 115 0 M115 0 C115 26.08, 115 52.16, 115 99 M115 0 C115 27.64, 115 55.28, 115 99 M115 99 C87.25 99, 59.49 99, 0 99 M115 99 C74.84 99, 34.68 99, 0 99 M0 99 C0 76.81, 0 54.63, 0 0 M0 99 C0 66.62, 0 34.24, 0 0" stroke="#1e1e1e" stroke-width="2" fill="none"></path></g><g stroke-linecap="round" transform="translate(10 21) rotate(0 57 54.5)"><path d="M0 0 C37.7 0, 75.39 0, 114 0 M0 0 C36.99 0, 73.98 0, 114 0 M114 0 C114 35.57, 114 71.13, 114 109 M114 0 C114 32.68, 114 65.35, 114 109 M114 109 C85.18 109, 56.36 109, 0 109 M114 109 C78.7 109, 43.4 109, 0 109 M0 109 C0 67.31, 0 25.63, 0 0 M0 109 C0 84.41, 0 59.83, 0 0" stroke="#1e1e1e" stroke-width="2" fill="none"></path></g><g stroke-linecap="round" transform="translate(81 86) rotate(0 13 13)"><path d="M26 13 C26 13.75, 25.93 14.52, 25.8 15.26 C25.67 16, 25.47 16.74, 25.22 17.45 C24.96 18.15, 24.63 18.85, 24.26 19.5 C23.88 20.15, 23.44 20.78, 22.96 21.36 C22.47 21.93, 21.93 22.47, 21.36 22.96 C20.78 23.44, 20.15 23.88, 19.5 24.26 C18.85 24.63, 18.15 24.96, 17.45 25.22 C16.74 25.47, 16 25.67, 15.26 25.8 C14.52 25.93, 13.75 26, 13 26 C12.25 26, 11.48 25.93, 10.74 25.8 C10 25.67, 9.26 25.47, 8.55 25.22 C7.85 24.96, 7.15 24.63, 6.5 24.26 C5.85 23.88, 5.22 23.44, 4.64 22.96 C4.07 22.47, 3.53 21.93, 3.04 21.36 C2.56 20.78, 2.12 20.15, 1.74 19.5 C1.37 18.85, 1.04 18.15, 0.78 17.45 C0.53 16.74, 0.33 16, 0.2 15.26 C0.07 14.52, 0 13.75, 0 13 C0 12.25, 0.07 11.48, 0.2 10.74 C0.33 10, 0.53 9.26, 0.78 8.55 C1.04 7.85, 1.37 7.15, 1.74 6.5 C2.12 5.85, 2.56 5.22, 3.04 4.64 C3.53 4.07, 4.07 3.53, 4.64 3.04 C5.22 2.56, 5.85 2.12, 6.5 1.74 C7.15 1.37, 7.85 1.04, 8.55 0.78 C9.26 0.53, 10 0.33, 10.74 0.2 C11.48 0.07, 12.25 0, 13 0 C13.75 0, 14.52 0.07, 15.26 0.2 C16 0.33, 16.74 0.53, 17.45 0.78 C18.15 1.04, 18.85 1.37, 19.5 1.74 C20.15 2.12, 20.78 2.56, 21.36 3.04 C21.93 3.53, 22.47 4.07, 22.96 4.64 C23.44 5.22, 23.88 5.85, 24.26 6.5 C24.63 7.15, 24.96 7.85, 25.22 8.55 C25.47 9.26, 25.67 10, 25.8 10.74 C25.93 11.48, 25.97 12.62, 26 13 C26.03 13.38, 26.03 12.62, 26 13" stroke="#1e1e1e" stroke-width="2" fill="none"></path></g><g stroke-linecap="round" transform="translate(68 10) rotate(0 41.5 55)"><path d="M0 0 C30.82 0, 61.65 0, 83 0 M0 0 C31.85 0, 63.7 0, 83 0 M83 0 C83 27.15, 83 54.29, 83 110 M83 0 C83 22.21, 83 44.42, 83 110 M83 110 C66.03 110, 49.06 110, 0 110 M83 110 C65.31 110, 47.63 110, 0 110 M0 110 C0 83.51, 0 57.03, 0 0 M0 110 C0 68.53, 0 27.06, 0 0" stroke="#1e1e1e" stroke-width="2" fill="none"></path></g><g stroke-linecap="round" transform="translate(18 46) rotate(0 48 60.5)"><path d="M0 0 C19.44 0, 38.88 0, 96 0 M0 0 C34.65 0, 69.29 0, 96 0 M96 0 C96 41.64, 96 83.29, 96 121 M96 0 C96 40.95, 96 81.91, 96 121 M96 121 C57.76 121, 19.52 121, 0 121 M96 121 C61.18 121, 26.37 121, 0 121 M0 121 C0 78.68, 0 36.36, 0 0 M0 121 C0 73.5, 0 26.01, 0 0" stroke="#1e1e1e" stroke-width="2" fill="none"></path></g></svg>
